<svg xmlns="http://www.w3.org/2000/svg" xmlns:xlink="http://www.w3.org/1999/xlink" width="500" zoomAndPan="magnify" viewBox="0 0 375 56.249996" height="75" preserveAspectRatio="xMidYMid meet" version="1.0"><defs><g/></defs><g fill="#000000" fill-opacity="1"><g transform="translate(2.467117, 52.055382)"><g><path d="M 25.625 0.796875 C 38.921875 0.796875 47.90625 -9.28125 47.65625 -23.515625 L 24.140625 -23.515625 L 24.140625 -18.3125 L 41.78125 -18.3125 C 40.65625 -10.15625 34.46875 -4.640625 25.75 -4.640625 C 16.03125 -4.640625 9.15625 -11.640625 9.15625 -21.65625 C 9.15625 -31.6875 15.96875 -38.6875 25.6875 -38.6875 C 32.375 -38.6875 37.6875 -35.40625 40.421875 -29.828125 L 46.359375 -29.828125 C 43.578125 -38.375 35.40625 -44.125 25.5 -44.125 C 12.8125 -44.125 3.59375 -34.65625 3.59375 -21.65625 C 3.59375 -8.609375 12.875 0.796875 25.625 0.796875 Z M 25.625 0.796875 "/></g></g></g><g fill="#000000" fill-opacity="1"><g transform="translate(53.529302, 52.055382)"><g><path d="M 6.3125 0 L 33.296875 0 L 33.296875 -5.078125 L 11.765625 -5.078125 L 11.765625 -19.5625 L 31.0625 -19.5625 L 31.0625 -24.578125 L 11.765625 -24.578125 L 11.765625 -38.25 L 32.609375 -38.25 L 32.609375 -43.328125 L 6.3125 -43.328125 Z M 6.3125 0 "/></g></g></g><g fill="#000000" fill-opacity="1"><g transform="translate(90.851113, 52.055382)"><g><path d="M 16.765625 0 L 22.21875 0 L 22.21875 -38.125 L 36.828125 -38.125 L 36.828125 -43.328125 L 2.109375 -43.328125 L 2.109375 -38.125 L 16.765625 -38.125 Z M 16.765625 0 "/></g></g></g><g fill="#233dff" fill-opacity="1"><g transform="translate(132.252399, 51.370724)"><g><path d="M 6.25 0 L 21.109375 0 C 34.296875 0 43.125 -8.765625 43.125 -21.46875 C 43.125 -34.171875 34.296875 -42.9375 21.109375 -42.9375 L 6.25 -42.9375 Z M 11.65625 -5.15625 L 11.65625 -37.78125 L 20.859375 -37.78125 C 30.859375 -37.78125 37.609375 -31.21875 37.609375 -21.46875 C 37.609375 -11.71875 30.921875 -5.15625 21.109375 -5.15625 Z M 11.65625 -5.15625 "/></g></g></g><g fill="#233dff" fill-opacity="1"><g transform="translate(178.930928, 51.370724)"><g><path d="M 1.046875 0 L 6.8125 0 L 10.734375 -9.75 L 31.65625 -9.75 L 35.703125 0 L 41.40625 0 L 23.734375 -42.9375 L 18.703125 -42.9375 Z M 12.828125 -14.78125 L 21.21875 -35.390625 L 29.625 -14.78125 Z M 12.828125 -14.78125 "/></g></g></g><g fill="#000000" fill-opacity="1"><g transform="translate(229.538421, 52.555156)"><g><path d="M 1.015625 0 L 6.609375 0 L 10.40625 -9.453125 L 30.703125 -9.453125 L 34.625 0 L 40.15625 0 L 23.03125 -41.65625 L 18.140625 -41.65625 Z M 12.4375 -14.34375 L 20.59375 -34.328125 L 28.734375 -14.34375 Z M 12.4375 -14.34375 "/></g></g></g><g fill="#000000" fill-opacity="1"><g transform="translate(270.704147, 52.555156)"><g><path d="M 6.0625 0 L 11.3125 0 L 11.3125 -13.6875 L 20.171875 -13.6875 C 29.578125 -13.6875 35.640625 -19.09375 35.640625 -27.671875 C 35.640625 -36.171875 29.578125 -41.65625 20.171875 -41.65625 L 6.0625 -41.65625 Z M 11.3125 -18.5625 L 11.3125 -36.65625 L 20.046875 -36.65625 C 26.78125 -36.65625 30.28125 -33.5625 30.28125 -27.609375 C 30.28125 -21.65625 26.78125 -18.5625 20.046875 -18.5625 Z M 11.3125 -18.5625 "/></g></g></g><g fill="#000000" fill-opacity="1"><g transform="translate(308.717008, 52.555156)"><g><path d="M 6.0625 0 L 11.3125 0 L 11.3125 -13.6875 L 20.171875 -13.6875 C 29.578125 -13.6875 35.640625 -19.09375 35.640625 -27.671875 C 35.640625 -36.171875 29.578125 -41.65625 20.171875 -41.65625 L 6.0625 -41.65625 Z M 11.3125 -18.5625 L 11.3125 -36.65625 L 20.046875 -36.65625 C 26.78125 -36.65625 30.28125 -33.5625 30.28125 -27.609375 C 30.28125 -21.65625 26.78125 -18.5625 20.046875 -18.5625 Z M 11.3125 -18.5625 "/></g></g></g></svg>